<svg xmlns="http://www.w3.org/2000/svg" id="_Слой_1" data-name="Слой 1" viewBox="0 0 180 180"><defs><style>.cls-1{fill:#fff}</style></defs><rect width="180" height="180" rx="17.33" ry="17.33"/><path d="M60.03 138.01h-5.04l-2-4.49h-9.17l-1.89 4.49h-4.91l8.94-19.78h4.9l9.19 19.78Zm-8.53-7.82-3.16-7.34-3.1 7.34zM62.64 118.23h18.25v19.78h-4.63v-16.46h-8.98v16.46h-4.63v-19.78ZM86.22 118.23h17.15v3.32H90.85v4.59h6.2q2.565 0 4.26.54c1.13.36 2.09 1.03 2.89 2s1.2 2.11 1.2 3.41-.4 2.49-1.21 3.44c-.8.95-1.72 1.61-2.75 1.96s-2.49.53-4.39.53H86.22v-19.78Zm4.63 16.46h4.51c1.44 0 2.45-.06 3.04-.18.58-.12 1.09-.4 1.53-.83.43-.43.65-.96.65-1.59 0-.92-.38-1.59-1.13-2q-1.14-.63-3.87-.63h-4.71v5.23ZM46.55 53.6l-.16-1.36h-.07c-.6.85-1.76 1.6-3.29 1.6-2.18 0-3.29-1.53-3.29-3.09 0-2.6 2.31-4.02 6.47-4v-.22c0-.89-.24-2.49-2.45-2.49-1 0-2.04.31-2.8.8l-.44-1.29c.89-.58 2.18-.96 3.53-.96 3.29 0 4.09 2.24 4.09 4.4v4.02c0 .93.04 1.85.18 2.58h-1.78Zm-.29-5.49c-2.13-.04-4.56.33-4.56 2.42 0 1.27.84 1.87 1.84 1.87 1.4 0 2.29-.89 2.6-1.8.07-.2.11-.42.11-.62v-1.87ZM53.21 42.84v4.33h5.11v-4.33h1.94V53.6h-1.94v-4.87h-5.11v4.87h-1.93V42.84zM69.42 53.6l-.16-1.36h-.07c-.6.85-1.76 1.6-3.29 1.6-2.18 0-3.29-1.53-3.29-3.09 0-2.6 2.31-4.02 6.47-4v-.22c0-.89-.24-2.49-2.45-2.49-1 0-2.04.31-2.8.8l-.44-1.29c.89-.58 2.18-.96 3.53-.96 3.29 0 4.09 2.24 4.09 4.4v4.02c0 .93.04 1.85.18 2.58h-1.78Zm-.29-5.49c-2.13-.04-4.56.33-4.56 2.42 0 1.27.84 1.87 1.84 1.87 1.4 0 2.29-.89 2.6-1.8.07-.2.11-.42.11-.62v-1.87ZM82.39 42.84V53.6h-1.93v-9.23h-3.69v2.8c0 3.02-.29 5.05-1.69 5.96-.53.42-1.13.67-2.13.67l-.2-1.54c.38-.07.8-.22 1.07-.44 1-.73 1.11-2.24 1.11-4.64v-4.33h7.47ZM87.4 42.84v4.53c0 1.71-.02 2.78-.11 4.31l.07.02c.65-1.31 1.02-2.07 1.74-3.31l3.36-5.56h2.29v10.76h-1.87v-4.56c0-1.76.05-2.67.13-4.4h-.07c-.69 1.38-1.16 2.25-1.78 3.33-1.02 1.67-2.2 3.74-3.36 5.62h-2.24V42.82h1.84ZM105.13 42.84v1.55h-3.36v9.2h-1.93v-9.2h-3.36v-1.55zM108.64 42.84v4.53c0 1.71-.02 2.78-.11 4.31l.07.02c.64-1.31 1.02-2.07 1.74-3.31l3.36-5.56h2.29v10.76h-1.87v-4.56c0-1.76.04-2.67.13-4.4h-.07c-.69 1.38-1.16 2.25-1.78 3.33-1.02 1.67-2.2 3.74-3.36 5.62h-2.25V42.82h1.85ZM121.1 42.84v4.67h.46l4.05-4.67h2.38l-4.69 4.87c1.74.18 2.78 1.33 3.63 3.27.29.71.66 1.76 1.15 2.62h-2.04c-.29-.47-.67-1.31-1-2.2-.74-1.74-1.74-2.54-3.56-2.54h-.37v4.74h-1.94V42.84h1.94ZM136.01 53.6l-.15-1.36h-.07c-.6.85-1.76 1.6-3.29 1.6-2.18 0-3.29-1.53-3.29-3.09 0-2.6 2.31-4.02 6.47-4v-.22c0-.89-.24-2.49-2.44-2.49-1 0-2.04.31-2.8.8l-.44-1.29c.89-.58 2.18-.96 3.54-.96 3.29 0 4.09 2.24 4.09 4.4v4.02c0 .93.04 1.85.18 2.58h-1.78Zm-.29-5.49c-2.13-.04-4.55.33-4.55 2.42 0 1.27.85 1.87 1.85 1.87 1.4 0 2.29-.89 2.6-1.8.07-.2.11-.42.11-.62v-1.87Z" class="cls-1"/><path d="M121.65 24.57c17.52 0 31.73 14.21 31.73 31.73v67.4c0 17.52-14.21 31.73-31.73 31.73H58.41c-17.52 0-31.73-14.21-31.73-31.73V56.3c0-17.52 14.21-31.73 31.73-31.73h63.23m0-7.31H58.41c-21.53 0-39.04 17.51-39.04 39.04v67.4c0 21.53 17.51 39.04 39.04 39.04h63.23c21.53 0 39.04-17.51 39.04-39.04V56.3c0-21.53-17.51-39.04-39.04-39.04" class="cls-1"/></svg>